<svg width="40" height="40" viewBox="0 0 40 40" fill="none" xmlns="http://www.w3.org/2000/svg">
<circle cx="20" cy="20" r="20" fill="#101010" fill-opacity="0.05"/>
<path d="M25.79 30.75H14.21C11.47 30.75 9.25 28.52 9.25 25.78V18.37C9.25 17.01 10.09 15.3 11.17 14.46L16.56 10.26C18.18 9 20.77 8.94 22.45 10.12L28.63 14.45C29.82 15.28 30.75 17.06 30.75 18.51V25.79C30.75 28.52 28.53 30.75 25.79 30.75ZM17.48 11.44L12.09 15.64C11.38 16.2 10.75 17.47 10.75 18.37V25.78C10.75 27.69 12.3 29.25 14.21 29.25H25.79C27.7 29.25 29.25 27.7 29.25 25.79V18.51C29.25 17.55 28.56 16.22 27.77 15.68L21.59 11.35C20.45 10.55 18.57 10.59 17.48 11.44Z" fill="#101010"/>
<path d="M20 26.75C19.59 26.75 19.25 26.41 19.25 26V23C19.25 22.59 19.59 22.25 20 22.25C20.41 22.25 20.75 22.59 20.75 23V26C20.75 26.41 20.41 26.75 20 26.75Z" fill="#101010"/>
</svg>
