<svg width="25" height="25" viewBox="0 0 25 25" fill="none" xmlns="http://www.w3.org/2000/svg">
<path d="M8.16675 7.67001V6.70001C8.16675 4.45001 9.97675 2.24001 12.2267 2.03001C14.9067 1.77001 17.1667 3.88001 17.1667 6.51001V7.89001" stroke="#101010" stroke-width="1.5" stroke-miterlimit="10" stroke-linecap="round" stroke-linejoin="round"/>
<path opacity="0.3" d="M6.66682 25H12.6668C16.6868 25 17.4068 23.39 17.6168 21.43L18.3668 15.43C18.6368 12.99 17.9368 11 13.6668 11H5.66682C1.39682 11 0.696819 12.99 0.966819 15.43L1.71682 21.43C1.92682 23.39 2.64682 25 6.66682 25Z" fill="#FFA500"/>
<path d="M9.66682 22H15.6668C19.6868 22 20.4068 20.39 20.6168 18.43L21.3668 12.43C21.6368 9.99 20.9368 8 16.6668 8H8.66682C4.39682 8 3.69682 9.99 3.96682 12.43L4.71682 18.43C4.92682 20.39 5.64682 22 9.66682 22Z" stroke="#101010" stroke-width="1.5" stroke-miterlimit="10" stroke-linecap="round" stroke-linejoin="round"/>
<path d="M16.1622 12H16.1712" stroke="#101010" stroke-width="2" stroke-linecap="round" stroke-linejoin="round"/>
<path d="M9.16126 12H9.17024" stroke="#101010" stroke-width="2" stroke-linecap="round" stroke-linejoin="round"/>
</svg>
