<svg width="25" height="24" viewBox="0 0 25 24" fill="none" xmlns="http://www.w3.org/2000/svg">
<path d="M17.1667 8.62999C16.7567 8.62999 16.4167 8.28999 16.4167 7.87999V6.49999C16.4167 5.44999 15.9667 4.42999 15.1867 3.71999C14.3967 2.99999 13.3767 2.66999 12.2967 2.76999C10.4967 2.93999 8.91675 4.77999 8.91675 6.69999V7.66999C8.91675 8.07999 8.57675 8.41999 8.16675 8.41999C7.75675 8.41999 7.41675 8.07999 7.41675 7.66999V6.68999C7.41675 3.99999 9.58675 1.51999 12.1567 1.26999C13.6567 1.12999 15.0967 1.59999 16.1967 2.60999C17.2867 3.59999 17.9167 5.01999 17.9167 6.49999V7.87999C17.9167 8.28999 17.5767 8.62999 17.1667 8.62999Z" fill="#101010"/>
<path d="M15.6668 22.75H9.66681C5.04681 22.75 4.18681 20.6 3.96681 18.51L3.21681 12.52C3.10681 11.44 3.06681 9.89 4.11681 8.73C5.01681 7.73 6.50681 7.25 8.66681 7.25H16.6668C18.8368 7.25 20.3268 7.74 21.2168 8.73C22.2568 9.89 22.2268 11.44 22.1168 12.5L21.3668 18.51C21.1468 20.6 20.2868 22.75 15.6668 22.75ZM8.66681 8.75C6.97681 8.75 5.81681 9.08 5.22681 9.74C4.73681 10.28 4.57681 11.11 4.70681 12.35L5.45681 18.34C5.62681 19.94 6.06681 21.26 9.66681 21.26H15.6668C19.2668 21.26 19.7068 19.95 19.8768 18.36L20.6268 12.35C20.7568 11.13 20.5968 10.3 20.1068 9.75C19.5168 9.08 18.3568 8.75 16.6668 8.75H8.66681Z" fill="#101010"/>
<path d="M16.0867 13.15C15.5267 13.15 15.0767 12.7 15.0767 12.15C15.0767 11.6 15.5267 11.15 16.0767 11.15C16.6267 11.15 17.0767 11.6 17.0767 12.15C17.0767 12.7 16.6367 13.15 16.0867 13.15Z" fill="#101010"/>
<path d="M9.08666 13.15C8.52666 13.15 8.07666 12.7 8.07666 12.15C8.07666 11.6 8.52666 11.15 9.07666 11.15C9.62666 11.15 10.0767 11.6 10.0767 12.15C10.0767 12.7 9.63666 13.15 9.08666 13.15Z" fill="#101010"/>
</svg>
