<svg width="40" height="40" viewBox="0 0 40 40" fill="none" xmlns="http://www.w3.org/2000/svg">
<circle cx="20" cy="20" r="20" fill="#101010" fill-opacity="0.05"/>
<path d="M30 17.25H10C9.59 17.25 9.25 16.91 9.25 16.5C9.25 16.09 9.59 15.75 10 15.75H30C30.41 15.75 30.75 16.09 30.75 16.5C30.75 16.91 30.41 17.25 30 17.25Z" fill="#101010"/>
<path d="M16 25.25H14C13.59 25.25 13.25 24.91 13.25 24.5C13.25 24.09 13.59 23.75 14 23.75H16C16.41 23.75 16.75 24.09 16.75 24.5C16.75 24.91 16.41 25.25 16 25.25Z" fill="#101010"/>
<path d="M22.5 25.25H18.5C18.09 25.25 17.75 24.91 17.75 24.5C17.75 24.09 18.09 23.75 18.5 23.75H22.5C22.91 23.75 23.25 24.09 23.25 24.5C23.25 24.91 22.91 25.25 22.5 25.25Z" fill="#101010"/>
<path d="M25.56 29.25H14.44C10.46 29.25 9.25 28.05 9.25 24.11V15.89C9.25 11.95 10.46 10.75 14.44 10.75H25.55C29.53 10.75 30.74 11.95 30.74 15.89V24.1C30.75 28.05 29.54 29.25 25.56 29.25ZM14.44 12.25C11.3 12.25 10.75 12.79 10.75 15.89V24.1C10.75 27.2 11.3 27.74 14.44 27.74H25.55C28.69 27.74 29.24 27.2 29.24 24.1V15.89C29.24 12.79 28.69 12.25 25.55 12.25H14.44Z" fill="#101010"/>
</svg>
