<svg width="25" height="25" viewBox="0 0 25 25" fill="none" xmlns="http://www.w3.org/2000/svg">
<path opacity="0.23" d="M8.07002 5.81997L1.14002 11.37C0.360021 11.99 -0.139979 13.3 0.0300209 14.28L1.36002 22.24C1.60002 23.66 2.96002 24.81 4.40002 24.81H15.6C17.03 24.81 18.4 23.65 18.64 22.24L19.97 14.28C20.13 13.3 19.63 11.99 18.86 11.37L11.93 5.82997C10.86 4.96997 9.13002 4.96997 8.07002 5.81997Z" fill="#FFA500"/>
<path d="M13 18V15" stroke="#101010" stroke-width="1.5" stroke-linecap="round" stroke-linejoin="round"/>
<path d="M11.07 2.81997L4.14002 8.36997C3.36002 8.98997 2.86002 10.3 3.03002 11.28L4.36002 19.24C4.60002 20.66 5.96002 21.81 7.40002 21.81H18.6C20.03 21.81 21.4 20.65 21.64 19.24L22.97 11.28C23.13 10.3 22.63 8.98997 21.86 8.36997L14.93 2.82997C13.86 1.96997 12.13 1.96997 11.07 2.81997Z" stroke="#101010" stroke-width="1.5" stroke-linecap="round" stroke-linejoin="round"/>
</svg>
