<svg width="51" height="51" viewBox="0 0 51 51" fill="none" xmlns="http://www.w3.org/2000/svg">
<rect opacity="0.4" width="51" height="51" rx="18" fill="#CF8600"/>
<path d="M26.1596 25.62C26.1296 25.62 26.1096 25.62 26.0796 25.62C26.0296 25.61 25.9596 25.61 25.8996 25.62C22.9996 25.53 20.8096 23.25 20.8096 20.44C20.8096 17.58 23.1396 15.25 25.9996 15.25C28.8596 15.25 31.1896 17.58 31.1896 20.44C31.1796 23.25 28.9796 25.53 26.1896 25.62C26.1796 25.62 26.1696 25.62 26.1596 25.62ZM25.9996 16.75C23.9696 16.75 22.3096 18.41 22.3096 20.44C22.3096 22.44 23.8696 24.05 25.8596 24.12C25.9096 24.11 26.0496 24.11 26.1796 24.12C28.1396 24.03 29.6796 22.42 29.6896 20.44C29.6896 18.41 28.0296 16.75 25.9996 16.75Z" fill="#101010"/>
<path d="M26.1696 36.55C24.2096 36.55 22.2396 36.05 20.7496 35.05C19.3596 34.13 18.5996 32.87 18.5996 31.5C18.5996 30.13 19.3596 28.86 20.7496 27.93C23.7496 25.94 28.6096 25.94 31.5896 27.93C32.9696 28.85 33.7396 30.11 33.7396 31.48C33.7396 32.85 32.9796 34.12 31.5896 35.05C30.0896 36.05 28.1296 36.55 26.1696 36.55ZM21.5796 29.19C20.6196 29.83 20.0996 30.65 20.0996 31.51C20.0996 32.36 20.6296 33.18 21.5796 33.81C24.0696 35.48 28.2696 35.48 30.7596 33.81C31.7196 33.17 32.2396 32.35 32.2396 31.49C32.2396 30.64 31.7096 29.82 30.7596 29.19C28.2696 27.53 24.0696 27.53 21.5796 29.19Z" fill="#101010"/>
</svg>
