<svg width="40" height="40" viewBox="0 0 40 40" fill="none" xmlns="http://www.w3.org/2000/svg">
<circle cx="20" cy="20" r="20" fill="#101010" fill-opacity="0.05"/>
<path d="M20 23.75C17.93 23.75 16.25 22.07 16.25 20C16.25 17.93 17.93 16.25 20 16.25C22.07 16.25 23.75 17.93 23.75 20C23.75 22.07 22.07 23.75 20 23.75ZM20 17.75C18.76 17.75 17.75 18.76 17.75 20C17.75 21.24 18.76 22.25 20 22.25C21.24 22.25 22.25 21.24 22.25 20C22.25 18.76 21.24 17.75 20 17.75Z" fill="#101010"/>
<path d="M23.21 30.19C23 30.19 22.79 30.16 22.58 30.11C21.96 29.94 21.44 29.55 21.11 29L20.99 28.8C20.4 27.78 19.59 27.78 19 28.8L18.89 28.99C18.56 29.55 18.04 29.95 17.42 30.11C16.79 30.28 16.14 30.19 15.59 29.86L13.87 28.87C13.26 28.52 12.82 27.95 12.63 27.26C12.45 26.57 12.54 25.86 12.89 25.25C13.18 24.74 13.26 24.28 13.09 23.99C12.92 23.7 12.49 23.53 11.9 23.53C10.44 23.53 9.25 22.34 9.25 20.88V19.12C9.25 17.66 10.44 16.47 11.9 16.47C12.49 16.47 12.92 16.3 13.09 16.01C13.26 15.72 13.19 15.26 12.89 14.75C12.54 14.14 12.45 13.42 12.63 12.74C12.81 12.05 13.25 11.48 13.87 11.13L15.6 10.14C16.73 9.47001 18.22 9.86001 18.9 11.01L19.02 11.21C19.61 12.23 20.42 12.23 21.01 11.21L21.12 11.02C21.8 9.86001 23.29 9.47001 24.43 10.15L26.15 11.14C26.76 11.49 27.2 12.06 27.39 12.75C27.57 13.44 27.48 14.15 27.13 14.76C26.84 15.27 26.76 15.73 26.93 16.02C27.1 16.31 27.53 16.48 28.12 16.48C29.58 16.48 30.77 17.67 30.77 19.13V20.89C30.77 22.35 29.58 23.54 28.12 23.54C27.53 23.54 27.1 23.71 26.93 24C26.76 24.29 26.83 24.75 27.13 25.26C27.48 25.87 27.58 26.59 27.39 27.27C27.21 27.96 26.77 28.53 26.15 28.88L24.42 29.87C24.04 30.08 23.63 30.19 23.21 30.19ZM20 26.49C20.89 26.49 21.72 27.05 22.29 28.04L22.4 28.23C22.52 28.44 22.72 28.59 22.96 28.65C23.2 28.71 23.44 28.68 23.64 28.56L25.37 27.56C25.63 27.41 25.83 27.16 25.91 26.86C25.99 26.56 25.95 26.25 25.8 25.99C25.23 25.01 25.16 24 25.6 23.23C26.04 22.46 26.95 22.02 28.09 22.02C28.73 22.02 29.24 21.51 29.24 20.87V19.11C29.24 18.48 28.73 17.96 28.09 17.96C26.95 17.96 26.04 17.52 25.6 16.75C25.16 15.98 25.23 14.97 25.8 13.99C25.95 13.73 25.99 13.42 25.91 13.12C25.83 12.82 25.64 12.58 25.38 12.42L23.65 11.43C23.22 11.17 22.65 11.32 22.39 11.76L22.28 11.95C21.71 12.94 20.88 13.5 19.99 13.5C19.1 13.5 18.27 12.94 17.7 11.95L17.59 11.75C17.34 11.33 16.78 11.18 16.35 11.43L14.62 12.43C14.36 12.58 14.16 12.83 14.08 13.13C14 13.43 14.04 13.74 14.19 14C14.76 14.98 14.83 15.99 14.39 16.76C13.95 17.53 13.04 17.97 11.9 17.97C11.26 17.97 10.75 18.48 10.75 19.12V20.88C10.75 21.51 11.26 22.03 11.9 22.03C13.04 22.03 13.95 22.47 14.39 23.24C14.83 24.01 14.76 25.02 14.19 26C14.04 26.26 14 26.57 14.08 26.87C14.16 27.17 14.35 27.41 14.61 27.57L16.34 28.56C16.55 28.69 16.8 28.72 17.03 28.66C17.27 28.6 17.47 28.44 17.6 28.23L17.71 28.04C18.28 27.06 19.11 26.49 20 26.49Z" fill="#101010"/>
</svg>
